<?xml version="1.0" standalone="no"?>
<!DOCTYPE svg PUBLIC "-//W3C//DTD SVG 20010904//EN"
 "http://www.w3.org/TR/2001/REC-SVG-20010904/DTD/svg10.dtd">
<svg version="1.0" xmlns="http://www.w3.org/2000/svg"
 width="360.000000pt" height="360.000000pt" viewBox="0 0 360.000000 360.000000"
 preserveAspectRatio="xMidYMid meet">
<metadata>
Created by potrace 1.14, written by Peter Selinger 2001-2017
</metadata>
<g transform="translate(0.000000,360.000000) scale(0.100000,-0.100000)"
fill="#000000" stroke="none">
<path d="M2035 2922 c-8 -39 -56 -89 -106 -112 l-42 -18 36 -16 c44 -18 89
-62 106 -104 16 -38 27 -41 35 -8 9 36 53 84 99 108 l41 20 -39 19 c-54 26
-75 48 -97 97 -10 23 -21 42 -23 42 -2 0 -6 -13 -10 -28z"/>
<path d="M1290 2545 c0 -30 -42 -104 -83 -146 -23 -23 -70 -56 -105 -72 l-63
-29 58 -28 c72 -33 114 -69 156 -129 17 -25 31 -47 29 -48 -1 -2 1 -10 3 -18
3 -8 7 -22 10 -30 6 -20 25 -19 25 0 0 30 43 106 86 150 37 39 118 88 148 90
5 0 11 5 13 10 2 6 -20 19 -49 29 -71 25 -159 113 -184 184 -17 49 -44 71 -44
37z"/>
<path d="M1653 2332 c-19 -3 -23 -10 -23 -37 0 -18 6 -35 13 -37 6 -2 164 -4
351 -3 l338 1 39 -58 39 -57 -42 -11 c-59 -16 -188 -60 -218 -76 -14 -7 -92
-46 -175 -87 -82 -41 -195 -99 -250 -129 -100 -53 -248 -127 -337 -167 -27
-12 -94 -37 -150 -56 -96 -32 -103 -33 -118 -17 -9 9 -48 55 -87 101 l-71 84
51 76 c28 42 54 78 57 81 11 11 110 159 110 165 0 8 -42 44 -52 45 -5 0 -87
-113 -143 -198 -1 -1 -33 -4 -71 -7 -112 -6 -191 -42 -276 -124 -118 -112 -98
-272 44 -359 82 -51 272 -61 431 -23 35 8 39 7 55 -17 9 -14 32 -42 49 -62 18
-19 33 -40 33 -47 0 -12 -109 -34 -189 -37 -97 -5 -191 41 -191 92 0 28 -18 0
-24 -37 -22 -144 190 -211 473 -150 24 5 45 8 46 7 12 -15 130 -154 135 -158
3 -3 63 -75 135 -160 71 -85 142 -168 158 -185 l28 -30 20 25 c12 14 35 42 52
64 18 21 39 45 47 55 9 9 40 45 70 81 30 36 65 76 78 90 12 14 22 28 22 32 0
13 -34 48 -45 48 -7 0 -45 -39 -85 -88 -41 -48 -84 -98 -97 -112 -12 -14 -31
-36 -42 -50 l-21 -25 -32 36 c-62 69 -101 114 -162 189 -33 41 -66 80 -72 85
-6 6 -32 36 -58 67 -43 51 -52 78 -26 78 19 0 150 66 242 121 83 50 363 240
394 267 5 5 21 15 35 22 13 7 26 16 29 19 3 4 39 27 80 53 110 67 275 142 300
136 3 -1 15 4 27 10 20 11 25 8 53 -33 18 -26 29 -51 27 -58 -5 -10 -155 -190
-306 -365 -25 -30 -48 -58 -49 -63 -2 -6 7 -21 21 -34 l24 -25 49 57 c27 31
58 66 69 79 11 13 34 40 52 61 l32 39 104 -3 c192 -5 314 53 369 174 49 109 0
230 -114 288 -25 12 -122 29 -163 28 -16 -1 -99 -14 -115 -18 -10 -3 -27 12
-47 43 -17 26 -30 48 -28 50 11 12 188 -1 229 -17 50 -20 10 17 -54 49 -58 29
-112 42 -190 44 -44 2 -45 2 -101 85 -32 45 -60 85 -63 88 -6 6 -684 10 -723
5z m856 -330 c13 -19 20 -37 15 -41 -5 -4 -47 -22 -94 -41 -131 -53 -258 -120
-420 -223 -311 -197 -501 -302 -618 -343 l-54 -19 -24 30 c-14 17 -38 46 -54
66 l-30 36 93 38 c146 60 347 165 547 286 218 132 348 197 485 243 111 38 103
40 154 -32z m-1557 -91 c-3 -9 -23 -39 -44 -68 -42 -57 -44 -65 -25 -85 42
-45 158 -190 155 -194 -18 -17 -167 -25 -223 -11 -69 17 -124 67 -126 113 -4
75 -1 87 31 137 32 47 73 77 147 106 58 22 93 24 85 2z m1908 -46 c88 -45 92
-138 9 -224 -53 -55 -134 -86 -248 -96 -54 -5 -54 -5 -35 14 10 10 30 34 44
52 14 18 34 42 45 53 11 12 35 40 53 63 l33 42 -35 53 c-26 38 -32 54 -23 60
18 11 125 0 157 -17z"/>
<path d="M2170 1335 c-10 -32 -93 -125 -111 -125 -4 0 -20 -5 -36 -11 l-28
-10 58 -32 c60 -32 109 -89 122 -140 8 -32 20 -28 28 10 8 41 70 108 122 133
25 12 45 26 45 31 0 6 -4 8 -9 5 -13 -8 -96 48 -124 85 -14 19 -29 46 -32 62
-10 37 -21 34 -35 -8z"/>
</g>
</svg>
